<svg width="4200" height="700" viewBox="0 0 4200 700" fill="none" xmlns="http://www.w3.org/2000/svg"><rect width="4200" height="700" fill="#14213D"/><defs><pattern id="grid" width="56" height="56" patternUnits="userSpaceOnUse"><path d="M56 0H0V56" stroke="#E9F4F3" stroke-width="1" opacity="0.16"/></pattern></defs><rect width="4200" height="700" fill="url(#grid)"/><g transform="translate(220 150) scale(0.78125)">
    <rect width="512" height="512" rx="96" fill="#14213D" stroke="#FBFAF7" stroke-width="22"/>
    <circle cx="150" cy="150" r="34" fill="#2E9D70"/>
    <circle cx="362" cy="150" r="34" fill="#C7861D"/>
    <circle cx="150" cy="362" r="34" fill="#D95D39"/>
    <circle cx="362" cy="362" r="34" fill="#0E7C86"/>
    <path d="M150 150H362M150 150L362 362M150 362H362M362 150L150 362" stroke="#E9F4F3" stroke-width="18" stroke-linecap="round" opacity="0.42"/>
    <text x="256" y="285" text-anchor="middle" font-family="Arial, sans-serif" font-size="116" font-weight="800" fill="#FFFFFF">OS</text>
  </g>
    <text x="760" y="300" font-family="Arial, sans-serif" font-size="154" font-weight="800" fill="#FFFFFF">Opportunity Scanner</text>
    <text x="760" y="405" font-family="Arial, sans-serif" font-size="54" font-weight="650" fill="#D7EFEC">Public-sector revenue intelligence from your company website.</text>
    <g transform="translate(3180 190)">
    <rect width="700" height="344" rx="18" fill="#FBFAF7"/>
    <rect x="24" y="26" width="652" height="42" rx="8" fill="#E9F4F3"/>
    <rect x="24" y="84" width="652" height="1" fill="#D9DEE7"/>
    <rect x="24" y="108" width="156" height="42" rx="7" fill="#E9F4F3"/>
    <rect x="217" y="108" width="189" height="42" rx="7" fill="#E9F4F3"/>
    <rect x="455" y="108" width="189" height="42" rx="7" fill="#E9F4F3"/>
    <rect x="24" y="170" width="326" height="18" rx="9" fill="#0E7C86"/>
    <rect x="406" y="170" width="202" height="18" rx="9" fill="#2E9D70"/>
  </g>
    </svg>