<svg width="1200" height="630" viewBox="0 0 1200 630" fill="none" xmlns="http://www.w3.org/2000/svg"><rect width="1200" height="630" fill="#14213D"/><defs><pattern id="grid" width="56" height="56" patternUnits="userSpaceOnUse"><path d="M56 0H0V56" stroke="#E9F4F3" stroke-width="1" opacity="0.16"/></pattern></defs><rect width="1200" height="630" fill="url(#grid)"/>
    <g transform="translate(72 80) scale(0.21875)">
    <rect width="512" height="512" rx="96" fill="#14213D" stroke="#FBFAF7" stroke-width="22"/>
    <circle cx="150" cy="150" r="34" fill="#2E9D70"/>
    <circle cx="362" cy="150" r="34" fill="#C7861D"/>
    <circle cx="150" cy="362" r="34" fill="#D95D39"/>
    <circle cx="362" cy="362" r="34" fill="#0E7C86"/>
    <path d="M150 150H362M150 150L362 362M150 362H362M362 150L150 362" stroke="#E9F4F3" stroke-width="18" stroke-linecap="round" opacity="0.42"/>
    <text x="256" y="285" text-anchor="middle" font-family="Arial, sans-serif" font-size="116" font-weight="800" fill="#FFFFFF">OS</text>
  </g>
    <text x="72" y="270" font-family="Arial, sans-serif" font-size="62" font-weight="800" fill="#FFFFFF">Opportunity Scanner</text>
    <text x="74" y="327" font-family="Arial, sans-serif" font-size="28" font-weight="650" fill="#D7EFEC">Public-sector revenue intelligence</text>
    <text x="74" y="366" font-family="Arial, sans-serif" font-size="28" font-weight="650" fill="#D7EFEC">from your company website.</text>
    <g transform="translate(690 115)">
    <rect width="430" height="364" rx="18" fill="#FBFAF7"/>
    <rect x="24" y="26" width="382" height="42" rx="8" fill="#E9F4F3"/>
    <rect x="24" y="84" width="382" height="1" fill="#D9DEE7"/>
    <rect x="24" y="108" width="92" height="42" rx="7" fill="#E9F4F3"/>
    <rect x="133" y="108" width="111" height="42" rx="7" fill="#E9F4F3"/>
    <rect x="280" y="108" width="111" height="42" rx="7" fill="#E9F4F3"/>
    <rect x="24" y="170" width="191" height="18" rx="9" fill="#0E7C86"/>
    <rect x="249" y="170" width="118" height="18" rx="9" fill="#2E9D70"/>
  </g>
    <g transform="translate(72 510)" font-family="Arial, sans-serif" font-size="18" font-weight="700" fill="#FFFFFF">
    <rect width="174" height="44" rx="7" fill="#0E7C86"/><text x="87" y="29" text-anchor="middle">SOURCED SIGNALS</text>
    <rect x="190" width="162" height="44" rx="7" fill="#2E9D70"/><text x="271" y="29" text-anchor="middle">BUYER TARGETS</text>
    <rect x="368" width="150" height="44" rx="7" fill="#C7861D"/><text x="443" y="29" text-anchor="middle">NEXT ACTIONS</text>
  </g>
  </svg>