<svg width="2560" height="1440" viewBox="0 0 2560 1440" fill="none" xmlns="http://www.w3.org/2000/svg"><rect width="2560" height="1440" fill="#14213D"/><defs><pattern id="grid" width="56" height="56" patternUnits="userSpaceOnUse"><path d="M56 0H0V56" stroke="#E9F4F3" stroke-width="1" opacity="0.16"/></pattern></defs><rect width="2560" height="1440" fill="url(#grid)"/>
    <rect x="662" y="551" width="1236" height="338" rx="24" fill="#14213D" stroke="#D7EFEC" stroke-width="2" opacity="0.96"/>
    <g transform="translate(718 620) scale(0.390625)">
    <rect width="512" height="512" rx="96" fill="#14213D" stroke="#FBFAF7" stroke-width="22"/>
    <circle cx="150" cy="150" r="34" fill="#2E9D70"/>
    <circle cx="362" cy="150" r="34" fill="#C7861D"/>
    <circle cx="150" cy="362" r="34" fill="#D95D39"/>
    <circle cx="362" cy="362" r="34" fill="#0E7C86"/>
    <path d="M150 150H362M150 150L362 362M150 362H362M362 150L150 362" stroke="#E9F4F3" stroke-width="18" stroke-linecap="round" opacity="0.42"/>
    <text x="256" y="285" text-anchor="middle" font-family="Arial, sans-serif" font-size="116" font-weight="800" fill="#FFFFFF">OS</text>
  </g>
    <text x="970" y="704" font-family="Arial, sans-serif" font-size="72" font-weight="800" fill="#FFFFFF">Opportunity Scanner</text>
    <text x="970" y="772" font-family="Arial, sans-serif" font-size="32" font-weight="650" fill="#D7EFEC">Public-sector revenue intelligence from your company website.</text>
    <g transform="translate(970 810)" font-family="Arial, sans-serif" font-size="17" font-weight="700" fill="#FFFFFF">
    <rect width="174" height="44" rx="7" fill="#0E7C86"/><text x="87" y="29" text-anchor="middle">SOURCED SIGNALS</text>
    <rect x="190" width="162" height="44" rx="7" fill="#2E9D70"/><text x="271" y="29" text-anchor="middle">BUYER TARGETS</text>
    <rect x="368" width="150" height="44" rx="7" fill="#C7861D"/><text x="443" y="29" text-anchor="middle">NEXT ACTIONS</text>
  </g>
  </svg>