<svg xmlns="http://www.w3.org/2000/svg" width="1200" height="675" viewBox="0 0 1200 675" role="img" aria-labelledby="t d"><title id="t">Illustrative contact-path decision tree</title><desc id="d">Signal types map to official contact routes before enrichment.</desc><rect width="1200" height="675" fill="#f4f7f6"/><text x="64" y="74" font-family="Arial" font-size="34" font-weight="700" fill="#14213d">Choose the route from the signal</text><text x="64" y="110" font-family="Arial" font-size="19" fill="#52606d">Illustrative decision tree. Current source instructions always control.</text><g font-family="Arial"><rect x="420" y="145" width="360" height="78" rx="7" fill="#14213d"/><text x="600" y="193" text-anchor="middle" fill="#fff" font-size="24" font-weight="700">What kind of signal is it?</text><path d="M600 223v60M160 283h880" stroke="#8795a1" stroke-width="4"/><path d="M160 283v48M450 283v48M750 283v48M1040 283v48" stroke="#8795a1" stroke-width="4"/><g fill="#fff" stroke="#0e7c86" stroke-width="3"><rect x="55" y="331" width="210" height="162" rx="7"/><rect x="345" y="331" width="210" height="162" rx="7"/><rect x="645" y="331" width="210" height="162" rx="7"/><rect x="935" y="331" width="210" height="162" rx="7"/></g><g fill="#14213d" font-size="21" font-weight="700" text-anchor="middle"><text x="160" y="373">Active notice</text><text x="450" y="373">Early demand</text><text x="750" y="373">Funded recipient</text><text x="1040" y="373">Prime / channel</text></g><g fill="#52606d" font-size="17" text-anchor="middle"><text x="160" y="414">Notice contact +</text><text x="160" y="438">response instructions</text><text x="450" y="414">Forecast, liaison,</text><text x="450" y="438">small-business office</text><text x="750" y="414">Program, procurement,</text><text x="750" y="438">or partnership route</text><text x="1040" y="414">Supplier portal or</text><text x="1040" y="438">subcontracting liaison</text></g><rect x="330" y="545" width="540" height="72" rx="7" fill="#e9f4f3" stroke="#2e9d70" stroke-width="3"/><text x="600" y="589" text-anchor="middle" fill="#14213d" font-size="21" font-weight="700">Enrich only a validated private target and relevant role</text></g></svg>
