<svg xmlns="http://www.w3.org/2000/svg" width="1200" height="675" viewBox="0 0 1200 675" role="img" aria-labelledby="t d"><title id="t">Illustrative industry education-to-action path</title><desc id="d">Industry education connects to research, a truthful sample, a free scan, and a paid action table.</desc><rect width="1200" height="675" fill="#f4f7f6"/><text x="64" y="74" font-family="Arial" font-size="34" font-weight="700" fill="#14213d">Education earns the scan; execution earns the unlock</text><text x="64" y="110" font-family="Arial" font-size="19" fill="#52606d">Illustrative journey. No conversion rate or typical result is claimed.</text><g font-family="Arial"><g fill="#fff" stroke="#0e7c86" stroke-width="3"><rect x="45" y="220" width="190" height="154" rx="7"/><rect x="275" y="220" width="190" height="154" rx="7"/><rect x="505" y="220" width="190" height="154" rx="7"/><rect x="735" y="220" width="190" height="154" rx="7"/></g><rect x="965" y="205" width="190" height="184" rx="7" fill="#14213d"/><g fill="#14213d" font-size="20" font-weight="700" text-anchor="middle"><text x="140" y="267">Industry map</text><text x="370" y="267">Deep resources</text><text x="600" y="267">Truthful sample</text><text x="830" y="267">Free scan</text></g><text x="1060" y="253" text-anchor="middle" fill="#fff" font-size="20" font-weight="700">Paid action table</text><g fill="#52606d" font-size="16" text-anchor="middle"><text x="140" y="308">Money lanes, targets,</text><text x="140" y="332">motions, caveats</text><text x="370" y="308">Industry, source,</text><text x="370" y="332">workflow guides</text><text x="600" y="308">Real sources and</text><text x="600" y="332">illustrative actions</text><text x="830" y="308">Real signals and</text><text x="830" y="332">qualified total</text></g><g fill="#e9f4f3" font-size="16" text-anchor="middle"><text x="1060" y="295">All rows, routes,</text><text x="1060" y="319">notes, next actions,</text><text x="1060" y="343">workflow export</text></g><g stroke="#2e9d70" stroke-width="5"><path d="M235 297h35M465 297h35M695 297h35M925 297h35"/></g><rect x="290" y="485" width="620" height="82" rx="7" fill="#e9f4f3" stroke="#2e9d70" stroke-width="3"/><text x="600" y="520" text-anchor="middle" fill="#14213d" font-size="21" font-weight="700">Free value: evidence and fit</text><text x="600" y="548" text-anchor="middle" fill="#52606d" font-size="17">Paid value: complete decisions and execution work</text></g></svg>
