<svg width="1500" height="500" viewBox="0 0 1500 500" fill="none" xmlns="http://www.w3.org/2000/svg">
  <rect width="1500" height="500" fill="#14213D"/>
  <rect x="0" y="0" width="1500" height="500" fill="url(#grid)" opacity="0.18"/>
  <circle cx="1180" cy="90" r="170" fill="#0E7C86" opacity="0.28"/>
  <circle cx="1325" cy="420" r="210" fill="#2E9D70" opacity="0.18"/>
  <rect x="80" y="92" width="112" height="112" rx="24" fill="#FBFAF7"/>
  <rect x="96" y="108" width="80" height="80" rx="18" fill="#14213D"/>
  <circle cx="119" cy="131" r="8" fill="#2E9D70"/>
  <circle cx="153" cy="131" r="8" fill="#C7861D"/>
  <circle cx="119" cy="165" r="8" fill="#D95D39"/>
  <circle cx="153" cy="165" r="8" fill="#0E7C86"/>
  <text x="136" y="159" text-anchor="middle" font-family="Inter, Arial, sans-serif" font-size="28" font-weight="800" fill="#FFFFFF">OS</text>
  <text x="80" y="270" font-family="Inter, Arial, sans-serif" font-size="62" font-weight="800" fill="#FFFFFF">Opportunity Scanner</text>
  <text x="82" y="327" font-family="Inter, Arial, sans-serif" font-size="28" font-weight="650" fill="#D7EFEC">Public-sector revenue intelligence from your company website.</text>
  <g transform="translate(890 146)">
    <rect width="440" height="216" rx="18" fill="#FBFAF7"/>
    <rect x="24" y="28" width="392" height="38" rx="8" fill="#E9F4F3"/>
    <rect x="24" y="88" width="392" height="1" fill="#D9DEE7"/>
    <rect x="24" y="112" width="86" height="42" rx="8" fill="#E9F4F3"/>
    <rect x="126" y="112" width="122" height="42" rx="8" fill="#E9F4F3"/>
    <rect x="264" y="112" width="152" height="42" rx="8" fill="#E9F4F3"/>
    <rect x="24" y="170" width="180" height="18" rx="9" fill="#0E7C86"/>
    <rect x="224" y="170" width="132" height="18" rx="9" fill="#2E9D70"/>
  </g>
  <defs>
    <pattern id="grid" width="56" height="56" patternUnits="userSpaceOnUse">
      <path d="M56 0H0V56" stroke="#E9F4F3" stroke-width="1"/>
    </pattern>
  </defs>
</svg>
